<svg xmlns="http://www.w3.org/2000/svg" width="28" height="28" viewBox="0 0 28 28" fill="none">
  <defs>
    <linearGradient id="g" x1="3" y1="2" x2="26" y2="26" gradientUnits="userSpaceOnUse">
      <stop stop-color="#7C3AED"/>
      <stop offset="0.55" stop-color="#06B6D4"/>
      <stop offset="1" stop-color="#22C55E"/>
    </linearGradient>
  </defs>
  <rect x="2" y="2" width="24" height="24" rx="8" fill="url(#g)"/>
  <path d="M8.7 18.2V9.8h3.1c1.2 0 2 .3 2.6.9.6.6.9 1.4.9 2.4 0 1-.3 1.8-.9 2.4-.6.6-1.4.9-2.6.9H10.5v1.8H8.7Zm1.8-3.4h1.1c.7 0 1.2-.15 1.5-.45.3-.3.45-.7.45-1.25 0-.55-.15-.97-.45-1.27-.3-.3-.8-.45-1.5-.45h-1.1v3.42Z" fill="rgba(255,255,255,0.92)"/>
  <circle cx="21" cy="9" r="2.1" fill="rgba(255,255,255,0.22)"/>
</svg>

