<svg xmlns="http://www.w3.org/2000/svg" width="1200" height="800" viewBox="0 0 1200 800" fill="none">
  <defs>
    <linearGradient id="bg" x1="140" y1="80" x2="1120" y2="760" gradientUnits="userSpaceOnUse">
      <stop stop-color="#7C3AED" stop-opacity="0.55"/>
      <stop offset="0.55" stop-color="#06B6D4" stop-opacity="0.45"/>
      <stop offset="1" stop-color="#22C55E" stop-opacity="0.40"/>
    </linearGradient>
    <radialGradient id="glow" cx="0" cy="0" r="1" gradientUnits="userSpaceOnUse" gradientTransform="translate(330 240) rotate(28) scale(520 360)">
      <stop stop-color="white" stop-opacity="0.35"/>
      <stop offset="1" stop-color="white" stop-opacity="0"/>
    </radialGradient>
    <filter id="blur" x="-20%" y="-20%" width="140%" height="140%">
      <feGaussianBlur stdDeviation="22"/>
    </filter>
  </defs>

  <rect x="0" y="0" width="1200" height="800" rx="40" fill="url(#bg)"/>
  <circle cx="320" cy="240" r="260" fill="url(#glow)" filter="url(#blur)"/>
  <circle cx="880" cy="520" r="280" fill="url(#glow)" filter="url(#blur)"/>

  <g opacity="0.85">
    <path d="M160 540C300 390 420 300 560 340C700 380 730 510 860 560C990 610 1060 530 1120 460" stroke="rgba(255,255,255,0.55)" stroke-width="3" fill="none"/>
    <path d="M140 580C300 450 420 390 560 430C700 470 760 620 900 650C1040 680 1100 610 1160 540" stroke="rgba(255,255,255,0.35)" stroke-width="3" fill="none"/>
  </g>

  <g>
    <rect x="120" y="90" width="960" height="620" rx="30" fill="rgba(11,12,16,0.22)" stroke="rgba(255,255,255,0.22)"/>
    <text x="180" y="200" fill="rgba(255,255,255,0.90)" font-size="64" font-family="ui-sans-serif, system-ui, -apple-system, Segoe UI, Roboto">
      HERO IMAGE
    </text>
    <text x="180" y="265" fill="rgba(255,255,255,0.70)" font-size="28" font-family="ui-sans-serif, system-ui, -apple-system, Segoe UI, Roboto">
      ì0Ð ä ˆ´\ tøÀ| #<8” (|…: hero.jpg/png/svg)
    </text>
  </g>
</svg>

