<svg xmlns="http://www.w3.org/2000/svg" width="64" height="64" viewBox="0 0 64 64" fill="none">
  <defs>
    <linearGradient id="f" x1="8" y1="6" x2="58" y2="58" gradientUnits="userSpaceOnUse">
      <stop stop-color="#7C3AED"/>
      <stop offset="0.6" stop-color="#06B6D4"/>
      <stop offset="1" stop-color="#22C55E"/>
    </linearGradient>
  </defs>
  <rect x="6" y="6" width="52" height="52" rx="18" fill="url(#f)"/>
  <path d="M22 43V21h9c3.2 0 5.6.8 7.2 2.4 1.6 1.6 2.4 3.7 2.4 6.2 0 2.6-.8 4.7-2.4 6.3-1.6 1.6-4 2.4-7.2 2.4h-4.3V43H22Zm4.7-9h4c1.8 0 3.1-.4 3.9-1.2.8-.8 1.2-1.9 1.2-3.2 0-1.4-.4-2.5-1.2-3.3-.8-.8-2.1-1.2-3.9-1.2h-4V34Z" fill="rgba(255,255,255,0.92)"/>
</svg>

